#!OML:ASF C:\ViconDB\ViconDB\414\Spring2016\041811\Spring2016.ASF
:FULLY-SPECIFIED
:DEGREES
171
root 8.71293 18.4079 -29.4924 -175.484 -4.336 178.55
lowerback 2.94425 -3.83828 -5.40487
upperback -0.995004 -5.29826 1.84149
thorax -2.01302 -2.56565 5.1444
lowerneck -16.5406 -4.96932 -16.5285
upperneck 19.8813 -6.17347 18.5563
head 10.2094 -1.89989 8.79848
rclavicle 1.11071e-014 3.57812e-015
rhumerus -77.4178 -4.28113 -83.0293
rradius 92.2007
rwrist 11.1993
rhand -32.7159 -9.80735
rfingers 7.12502
rthumb -5.93997 -39.7041
lclavicle 1.11071e-014 3.57812e-015
lhumerus -49.5298 -34.8745 101.863
lradius 106.55
lwrist -13.4733
lhand -36.3897 6.46271
lfingers 7.12502
lthumb -9.48585 36.2292
rfemur -38.8273 -10.6772 24.4641
rtibia 36.1064
rfoot -160.368 -2.71024
rtoes -9.10063
lfemur 12.6782 -4.21163 -21.611
ltibia 40.8428
lfoot 10.4302 9.59849
ltoes -0.222312
172
root 8.74165 18.3347 -30.0102 -176.23 -4.08413 178.401
lowerback 3.36808 -3.46506 -5.24902
upperback -0.769215 -4.81438 1.57471
thorax -2.11347 -2.32698 4.79025
lowerneck -16.2694 -5.19591 -16.464
upperneck 19.7734 -6.53601 18.5777
head 10.1949 -2.06595 8.73453
rclavicle -4.4652e-014 4.37326e-015
rhumerus -75.9367 -5.52335 -83.2319
rradius 92.7944
rwrist 11.8393
rhand -32.6734 -10.0891
rfingers 7.12502
rthumb -5.8989 -39.987
lclavicle -4.4652e-014 4.37326e-015
lhumerus -51.1393 -33.8024 101.989
lradius 103.372
lwrist -14.1068
lhand -36.2319 6.86793
lfingers 7.12502
lthumb -9.33359 36.6413
rfemur -37.6205 -11.952 24.8245
rtibia 36.7405
rfoot -161.15 -3.45735
rtoes -10.5797
lfemur 11.5281 -3.49257 -21.4935
ltibia 45.7752
lfoot 9.50873 10.0931
ltoes -0.412837
173
root 8.74247 18.2622 -30.5303 -176.286 -3.69087 178.462
lowerback 3.02969 -3.11317 -4.62683
upperback -0.731835 -4.30487 1.40732
thorax -2.00284 -2.08502 4.22859
lowerneck -15.9519 -5.41641 -16.5195
upperneck 19.6439 -6.85753 18.5459
head 10.1566 -2.23433 8.67464
rclavicle 1.79527e-014 7.95139e-016
rhumerus -74.2476 -6.31823 -83.6493
rradius 93.3305
rwrist 11.757
rhand -33.21 -9.89628
rfingers 7.12502
rthumb -6.417 -39.7791
lclavicle 1.79527e-014 7.95139e-016
lhumerus -52.4396 -32.462 101.918
lradius 99.8266
lwrist -14.9042
lhand -36.0038 7.746
lfingers 7.12502
lthumb -9.11344 37.5291
rfemur -36.9568 -12.9714 25.0477
rtibia 37.9412
rfoot -160.045 -3.07786
rtoes -11.7552
lfemur 9.41676 -2.53258 -21.1241
ltibia 50.9183
lfoot 8.48472 10.3571
ltoes -0.439389
174
root 8.766 18.1337 -31.024 -176.946 -3.02729 178.037
lowerback 3.54722 -2.62396 -5.00219
upperback -0.594205 -3.69456 1.18696
thorax -2.20719 -1.77242 4.21596
lowerneck -15.6313 -5.55853 -16.226
upperneck 19.6654 -7.08328 18.1073
head 10.1171 -2.37208 8.40968
rclavicle 4.49253e-014 -1.98785e-016
rhumerus -72.4721 -6.91979 -84.0843
rradius 93.9978
rwrist 11.9989
rhand -32.9263 -10.0485
rfingers 7.12502
rthumb -6.14305 -39.9394
lclavicle 4.49253e-014 -1.98785e-016
lhumerus -53.6157 -30.9095 101.798
lradius 95.9651
lwrist -15.7021
lhand -35.3338 8.54249
lfingers 7.12502
lthumb -8.46695 38.3528
rfemur -35.4212 -13.0589 24.1708
rtibia 39.6209
rfoot -160.916 -0.81639
rtoes -13.1161
lfemur 7.72186 -1.31652 -21.1005
ltibia 56.156
lfoot 7.37405 10.3951
ltoes -0.25053
175
root 8.79056 18.0053 -31.5192 -177.61 -2.17769 178.15
lowerback 4.04808 -2.04411 -4.96693
upperback -0.470711 -2.94301 1.23353
thorax -2.4416 -1.39326 4.23337
lowerneck -15.4592 -5.53089 -15.5147
upperneck 19.8491 -7.06626 17.2064
head 10.0745 -2.40649 7.93174
rclavicle -3.1408e-014 1.72943e-014
rhumerus -70.5563 -7.18722 -84.434
rradius 94.5889
rwrist 12.4937
rhand -32.7007 -9.87976
rfingers 7.12502
rthumb -5.92529 -39.7769
lclavicle -3.1408e-014 1.72943e-014
lhumerus -54.5525 -29.2067 101.716
lradius 91.6059
lwrist -16.651
lhand -35.1303 9.43385
lfingers 7.12502
lthumb -8.2705 39.252
rfemur -33.927 -13.3872 24.1231
rtibia 41.5658
rfoot -162.147 1.33845
rtoes -14.0191
lfemur 5.94304 0.248734 -20.2934
ltibia 61.2419
lfoot 6.40988 9.75605
ltoes -1.13516
176
root 8.81667 17.8593 -31.9991 -178.422 -1.27695 178.74
lowerback 4.75932 -1.4445 -4.6088
upperback -0.296665 -2.15438 1.48199
thorax -2.75014 -1.00004 4.27102
lowerneck -14.8675 -5.58459 -15.4852
upperneck 19.5455 -7.13198 16.8727
head 9.84949 -2.49977 7.76578
rclavicle 3.57067e-014 -1.07344e-014
rhumerus -68.4508 -7.06315 -84.9032
rradius 95.2754
rwrist 12.5723
rhand -33.0465 -9.93402
rfingers 7.12502
rthumb -6.25912 -39.8215
lclavicle 3.57067e-014 -1.07344e-014
lhumerus -55.2118 -27.2869 101.457
lradius 86.9645
lwrist -17.3497
lhand -35.1872 10.5175
lfingers 7.12502
lthumb -8.32545 40.3334
rfemur -32.3985 -13.6291 24.6356
rtibia 43.5842
rfoot -163.269 3.66445
rtoes -15.7347
lfemur 4.12979 1.87231 -18.7923
ltibia 66.2132
lfoot 5.35002 9.1421
ltoes -2.43198
177
root 8.8371 17.7234 -32.4737 -179.435 -0.155739 179.41
lowerback 5.65092 -0.75299 -4.20083
upperback 0.0546163 -1.24686 1.80926
thorax -2.98565 -0.558687 4.33874
lowerneck -14.4337 -5.68623 -15.5094
upperneck 19.167 -7.24605 16.576
head 9.64342 -2.61438 7.61605
rclavicle 5.31749e-015 1.98785e-014
rhumerus -65.9279 -6.62431 -85.4141
rradius 95.7582
rwrist 12.6714
rhand -33.6018 -9.8656
rfingers 7.12502
rthumb -6.79523 -39.7366
lclavicle 5.31749e-015 1.98785e-014
lhumerus -55.4686 -25.4137 101.041
lradius 82.0279
lwrist -17.7617
lhand -35.0271 11.1962
lfingers 7.12502
lthumb -8.17097 41.0182
rfemur -30.6641 -13.728 25.0974
rtibia 45.483
rfoot -164.797 5.84006
rtoes -15.8022
lfemur 2.57723 3.68225 -17.1273
ltibia 70.8378
lfoot 4.35837 8.12437
ltoes -3.51523
